<?xml version="1.0" standalone="no"?><!DOCTYPE svg PUBLIC "-//W3C//DTD SVG 1.1//EN" "http://www.w3.org/Graphics/SVG/1.1/DTD/svg11.dtd"><svg t="1591716586611" class="icon" viewBox="0 0 1024 1024" version="1.1" xmlns="http://www.w3.org/2000/svg" p-id="1900" width="32" height="32" xmlns:xlink="http://www.w3.org/1999/xlink"><defs><style type="text/css"></style></defs><path d="M950.86 110.87H73.15c-40.23 0-73.14 32.91-73.14 73.14V842.3c0 40.23 32.91 73.14 73.14 73.14h877.72c40.23 0 73.14-32.91 73.14-73.14V184.01c0-40.23-32.92-73.14-73.15-73.14z m-36.57 73.14L566.86 502.19c-29.26 25.6-76.8 25.6-109.72 0L109.72 184.01h804.57zM73.15 257.15l256 252.34-256 259.66v-512z m36.57 585.15l277.94-266.97c32.91 29.26 76.8 47.54 124.34 47.54 47.55 0 91.43-18.28 124.35-47.54L914.29 842.3H109.72z m841.14-73.14l-256-259.66 256.01-252.34v512z m0 0" fill="#1296db" p-id="1901"></path></svg>