<?xml version="1.0" standalone="no"?><!DOCTYPE svg PUBLIC "-//W3C//DTD SVG 1.1//EN" "http://www.w3.org/Graphics/SVG/1.1/DTD/svg11.dtd"><svg t="1591716510613" class="icon" viewBox="0 0 1024 1024" version="1.1" xmlns="http://www.w3.org/2000/svg" p-id="1455" width="32" height="32" xmlns:xlink="http://www.w3.org/1999/xlink"><defs><style type="text/css"></style></defs><path d="M42.667 524.8c0 204.8 130.133 379.733 313.6 441.6 25.6 6.4 19.2-12.8 19.2-21.333V864c-142.934 17.067-147.2-76.8-157.867-93.867-19.2-32-64-42.666-51.2-57.6 32-17.066 64 4.267 104.533 61.867 27.734 42.667 81.067 34.133 108.8 27.733 4.267-25.6 19.2-46.933 36.267-64-147.2-27.733-209.067-115.2-209.067-221.866 0-51.2 17.067-98.134 51.2-138.667-21.333-64 2.134-119.467 4.267-125.867 61.867-4.266 123.733 44.8 128 46.934 34.133-10.667 74.667-14.934 119.467-14.934s83.2 4.267 119.466 14.934c12.8-10.667 72.534-51.2 128-46.934 2.134 6.4 25.6 61.867 4.267 123.734 34.133 40.533 51.2 87.466 51.2 138.666 0 106.667-61.867 198.4-209.067 221.867 25.6 25.6 40.534 59.733 40.534 96v119.467c0 10.666 0 19.2 14.933 19.2 187.733-64 322.133-238.934 322.133-445.867 0-260.267-209.066-469.333-469.333-469.333S42.667 264.533 42.667 524.8z" p-id="1456" fill="#1296db"></path></svg>