<?xml version="1.0" standalone="no"?><!DOCTYPE svg PUBLIC "-//W3C//DTD SVG 1.1//EN" "http://www.w3.org/Graphics/SVG/1.1/DTD/svg11.dtd"><svg t="1595606753733" class="icon" viewBox="0 0 1024 1024" version="1.1" xmlns="http://www.w3.org/2000/svg" p-id="1411" xmlns:xlink="http://www.w3.org/1999/xlink" width="128" height="128"><defs><style type="text/css"></style></defs><path d="M319.66905126 622.36923406V443.36073604a44.44733829 44.44733829 0 0 0 21.98865351-10.29662426l102.37870138 58.31326321a66.68569653 66.68569653 0 0 0-4.24497076 23.28123963c0 8.28430213 1.58635559 16.1867042 4.3331014 23.51625555l-49.88207577 28.42220763 11.89766809 20.35823261 49.97020696-28.4515847a69.12398402 69.12398402 0 0 0 40.74584171 23.10497785v119.85799171a44.49140415 44.49140415 0 0 0-19.15377711 10.89885145l-158.04803767-89.99631266z m201.01183977-40.7605305a69.12398402 69.12398402 0 0 0 40.74584229-23.10497785l49.9408293 28.45158471 11.92704574-20.35823262-49.89676459-28.40751938c2.76143406-7.34423961 4.34778965-15.24664166 4.34778965-23.53094379 0-8.18148327-1.55697854-16.01044239-4.25965902-23.28123964l105.22826606-59.92899587c5.27316392 5.11159094 11.83891454 8.90121871 19.15377709 10.91354026v180.00731468l-158.03334941 89.99631267a44.49140415 44.49140415 0 0 0-19.1537771-10.91354026v-119.85799117z m-11.91235634 141.71444875c11.35419447 0 20.59324796 9.10685701 20.59324795 20.29947847 0 11.20730974-9.23905348 20.31416673-20.59324795 20.31416729-11.35419447 0-20.59324796-9.10685701-20.59324797-20.31416729 0-11.19262148 9.23905348-20.29947848 20.59324797-20.29947848z m-175.79172097-323.14654548c0 11.20730974-9.25374172 20.32885554-20.59324795 20.32885553-11.36888329 0-20.59324796-9.10685701-20.59324851-20.32885553 0-11.19262148 9.22436523-20.31416673 20.59324851-20.3141673 11.35419447 0 20.59324796 9.10685701 20.59324795 20.3141673z m333.82507037 10.91354025L561.58830629 471.00445413a69.12398402 69.12398402 0 0 0-40.90741525-23.28123963V391.27538813h-23.82471326v56.44782637a69.10929523 69.10929523 0 0 0-40.90741525 23.28123963l-101.20362241-57.62290426a43.11068686 43.11068686 0 0 0 0-26.38050904L508.76853468 299.29613039l158.04803768 90.01100148a43.08130978 43.08130978 0 0 0-1.46884793 10.89885201c0 3.77493896 0.54347364 7.40299372 1.46884793 10.89885145z m42.97849038 9.41531528c-11.35419447 0-20.59324796-9.10685701-20.59324795-20.31416728 0-11.19262148 9.25374172-20.31416673 20.59324795-20.31416674 11.36888329 0 20.59324796 9.10685701 20.59324795 20.31416674s-9.22436523 20.31416673-20.59324795 20.31416728z m-201.01183979 49.6323716c24.8969723 0 45.13769723 19.97633196 45.13769666 44.52078066 0 24.55913752-20.24072437 44.53546947-45.13769666 44.53546948s-45.13769723-19.97633196-45.13769721-44.53546948c0-24.54444925 20.24072437-44.52078066 45.13769721-44.52078066zM721.69273138 635.92670015V442.36191938c18.72781113-5.140968 32.50560487-22.07678469 32.50560489-42.1559355 0-24.17723685-19.91757784-43.83042229-44.41796179-43.83042284-12.08861871 0-23.06091253 4.80313267-31.06613403 12.55864998L508.76853468 272.12244358 341.65770477 367.3331666a44.53546947 44.53546947 0 0 0-29.27413901-10.95760556C287.88318181 356.36087278 267.95091573 376.01405821 267.95091573 400.17660683c0 18.40466462 11.55983333 34.15071459 27.87873346 40.64302226v195.10707106l169.96039457 96.79707917a43.11068686 43.11068686 0 0 0-1.43947086 10.89885146c0 24.16254862 19.91757784 43.83042229 44.41796179 43.83042283 24.48569514 0 44.41796178-19.66787367 44.41796123-43.83042283a43.33101397 43.33101397 0 0 0-1.43947086-10.89885146l169.94570632-96.79707917z" fill="#03f9f5" p-id="1412"></path><path d="M672.22193278 698.57306472l-26.58614733 46.6359222-53.84796531 0c-6.46293118 0-11.75078337 5.34660631-11.75078393 11.92704517a11.85360279 11.85360279 0 0 0 11.75078393 11.89766812l67.42012021 0 33.37222502-58.54827856a11.98579928 11.98579928 0 0 0-4.3037249-16.27483538 11.55983333 11.55983333 0 0 0-8.91590695-1.20445494 11.7214063 11.7214063 0 0 0-7.13860074 5.56693339" fill="#1fc0f9" p-id="1413"></path><path d="M581.91716184 273.31221028a11.85360279 11.85360279 0 0 0 11.75078336 11.92704516l51.99721677 0L672.55976812 332.50678246a11.66265274 11.66265274 0 0 0 16.0545077 4.36247847 12.00048754 12.00048754 0 0 0 4.30372433-16.27483539l-33.71005981-59.19457162L593.6679452 261.39985393c-6.47761944 0-11.75078337 5.34660631-11.75078336 11.91235635" fill="#1fc0f9" p-id="1414"></path><path d="M281.08241584 572.01712647a12.04455284 12.04455284 0 0 0-1.17507788-9.04810288l-27.18837564-47.73755827 27.30588331-47.94319658a12.04455284 12.04455284 0 0 0-4.30372434-16.2748348 11.67734101 11.67734101 0 0 0-16.05450825 4.36247789L225.57465256 515.23146532l33.95976454 59.66460345a11.67734101 11.67734101 0 0 0 21.5333105-2.8789423" fill="#1fc0f9" p-id="1415"></path></svg>