<?xml version="1.0" standalone="no"?><!DOCTYPE svg PUBLIC "-//W3C//DTD SVG 1.1//EN" "http://www.w3.org/Graphics/SVG/1.1/DTD/svg11.dtd"><svg t="1591717533244" class="icon" viewBox="0 0 1024 1024" version="1.1" xmlns="http://www.w3.org/2000/svg" p-id="3029" xmlns:xlink="http://www.w3.org/1999/xlink" width="32" height="32"><defs><style type="text/css"></style></defs><path d="M306.432 432.1792c41.984-101.12 136.96-151.3984 208.6912-151.552-1.28 0.1536 7.424 1.28 457.216 1.28C814.0288-22.7328 515.584 0.4096 515.584 0.4096c-301.8752 11.8784-420.0448 232.448-420.0448 232.448L303.616 437.4016l2.7648-5.2736z m-8.9088 147.8656C237.5168 475.904 126.464 286.8224 95.488 232.8064c-202.752 287.5392-19.5584 539.4432-19.5584 539.4432 155.9552 247.3984 389.9392 251.2896 405.0944 251.2896l67.584-280.3712a226.4064 226.4064 0 0 1-251.0848-163.1232z m674.816-298.1376l-278.784 87.1424c44.6464 58.3168 82.688 193.9968-7.168 298.0864-59.0336 102.4512-173.568 301.4144-205.312 356.4032 338.7904 12.9024 477.0304-259.3792 477.0304-259.3792 135.0656-257.3824 21.9136-466.5344 14.2848-482.2528z m-268.6976 237.1584a188.4672 188.4672 0 0 1-188.3136 188.6208 188.5696 188.5696 0 0 1-188.3136-188.6208 188.4672 188.4672 0 0 1 188.3136-188.672 188.4672 188.4672 0 0 1 188.3136 188.672z" fill="#11d9f6" p-id="3030"></path></svg>