<?xml version="1.0" standalone="no"?><!DOCTYPE svg PUBLIC "-//W3C//DTD SVG 1.1//EN" "http://www.w3.org/Graphics/SVG/1.1/DTD/svg11.dtd"><svg t="1591716337987" class="icon" viewBox="0 0 1024 1024" version="1.1" xmlns="http://www.w3.org/2000/svg" p-id="559" width="32" height="32" xmlns:xlink="http://www.w3.org/1999/xlink"><defs><style type="text/css"></style></defs><path d="M245.333 298.667c147.2 76.8 275.2 68.266 275.2 68.266S471.467 202.667 618.667 128s247.466 49.067 247.466 49.067 25.6-6.4 44.8-14.934c19.2-4.266 46.934-17.066 46.934-17.066l-44.8 81.066 68.266-6.4s-10.666 12.8-36.266 36.267-40.534 40.533-40.534 40.533 10.667 200.534-96 354.134C704 804.267 565.333 896 371.2 915.2c-194.133 19.2-326.4-61.867-326.4-61.867s87.467-4.266 140.8-25.6 134.4-76.8 134.4-76.8-110.933-34.133-153.6-74.666-49.067-61.867-49.067-61.867l110.934-2.133s-115.2-61.867-147.2-110.934-38.4-93.866-38.4-93.866l83.2 34.133S57.6 345.6 44.8 270.933c-8.533-76.8 12.8-115.2 12.8-115.2S98.133 224 245.333 298.667z" p-id="560" fill="#1296db"></path></svg>